<?xml version="1.0" encoding="UTF-8"?>
<svg id="Calque_2" data-name="Calque 2" xmlns="http://www.w3.org/2000/svg" viewBox="0 0 43 31.26">
  <g id="Calque_1-2" data-name="Calque 1">
    <g>
      <path d="m35.36,17.75c-1.18-.9-2.35-1.82-3.54-2.7-2.09-1.54-4.2-3.03-6.52-4.21-2.2-1.11-4.55-1.6-7-1.5-1.4.06-2.63-.26-3.77-1.07-1.26-.9-2.57-1.72-3.85-2.58-.12-.08-.24-.15-.39-.24-.16.29-.3.56-.46.82-.15.25-.37.34-.64.17-.25-.16-.3-.39-.14-.65.35-.59.62-1.2.63-1.9.01-1.16-1.12-1.77-2.07-1.26.87.91,1.16,1.92.25,2.92-.79.86-1.75.75-2.68.15-.29.79.41,1.74,1.32,1.78.32.01.66-.09.97-.21.28-.11.5-.1.74.08,1.51,1.18,3.02,2.35,4.52,3.54.76.6,1.24,1.4,1.49,2.34.15.57.32,1.13.5,1.69.1.31.09.57-.24.69-.33.12-.53-.08-.63-.38-.17-.53-.35-1.06-.48-1.6-.21-.88-.66-1.59-1.37-2.15-1.33-1.03-2.65-2.07-3.98-3.08-.13-.1-.38-.15-.54-.1-1.93.57-3.62-.93-3.27-2.9.02-.14-.08-.36-.19-.45-.54-.38-1.11-.73-1.66-1.09-.64-.42-.87-.98-.65-1.71C2.03,1.09,2.71.37,3.8.06c.54-.15,1.02-.03,1.42.36.53.51,1.07,1.01,1.53,1.45.6-.12,1.12-.33,1.64-.32,1.36.03,2.33,1.18,2.19,2.56-.03.32.07.47.31.63,1.53,1,3.04,2.02,4.56,3.03.64.43,1.34.69,2.12.64,3.81-.22,7.26.84,10.45,2.9,2.95,1.9,5.75,4,8.48,6.2.27.22.53.3.84.2.67-.21,1.35-.41,2.01-.64,1-.35,2.02-.5,3.08-.51.32,0,.57.09.56.46,0,.34-.22.46-.53.46-1.26-.03-2.43.32-3.61.74-2.21.8-4.46.82-6.66,0-2.05-.78-4.11-.99-6.22-.38-.86.25-1.69.61-2.57.79-1.93.38-3.84.21-5.68-.53-.48-.19-.99-.32-1.48-.47-.03.05-.07.11-.1.16.64.68,1.22,1.43,1.92,2.04,3.87,3.42,7.88,6.64,12.27,9.37.44.27.88.53,1.33.79,1.08.6,2.35.46,3.22-.4,1.71-1.7,3.19-3.58,4.36-5.7.66-1.21.4-2.53-.65-3.43-.15-.13-.33-.27-.42-.44-.07-.14-.09-.41,0-.5.09-.1.34-.11.5-.08.15.02.29.14.41.24,1.48,1.19,1.85,3.05.94,4.72-.96,1.74-2.13,3.32-3.46,4.78-.3.33-.6.65-.91.96-1.27,1.27-2.98,1.5-4.53.6-3.55-2.04-6.8-4.49-9.96-7.07-1.21-.99-2.44-1.96-3.56-3.04-.9-.86-1.66-1.86-2.45-2.82-.16-.2-.3-.31-.57-.31-1.23-.03-2.39.22-3.53.65-2.43.93-4.86.91-7.28-.03-1.03-.4-2.08-.63-3.19-.62-.34,0-.6-.1-.58-.49.02-.37.29-.42.6-.42,1.12,0,2.2.16,3.24.58,2.41.97,4.8.94,7.22.02,2.27-.87,4.59-.86,6.87.01,2.35.9,4.67.94,7.02.04,2.44-.93,4.89-.89,7.32.06.98.38,1.99.61,3.09.47ZM4.14,3.92c.55.36,1.17.78,1.81,1.17.41.25.92.17,1.22-.13.3-.31.43-.85.14-1.17-.57-.64-1.2-1.22-1.73-1.75-.5.66-.96,1.26-1.45,1.89Zm.47-2.48c0-.44-.31-.62-.81-.44-.58.21-.92.67-1.13,1.22-.08.21-.09.6.04.71.16.15.52.18.76.12.52-.13,1.14-1.06,1.14-1.61Z"/>
      <path d="m29.24,21.73c-.09-.61-.15-1.16-.26-1.7-.1-.52.03-.73.56-.72,2.17.04,4.31.29,6.42.83.47.12.68.36.75.84.22,1.59.12,3.11-.71,4.53-.45.76-1.13,1.11-2,.97-1.95-.31-3.89-.62-5.84-.95-1.13-.19-1.81-1.21-1.63-2.39.16-.99,1.06-1.6,2.16-1.47.14.02.29.03.55.06Zm4.01,3.68c.11-.47.17-.89.31-1.28.05-.14.3-.29.46-.3.33-.02.47.29.36.68-.1.35-.26.7-.02,1.05.64-.06.91-.38.93-1.06.02-.82-.29-1.27-.97-1.34-1.93-.2-3.87-.39-5.8-.57-.6-.06-1.02.22-1.1.71-.1.61.26,1.22.83,1.32,1.67.28,3.34.54,4.98.8Zm-3.14-3.6c1.2.12,2.38.24,3.57.36.77.08,1.58.07,2.17.78.04-.55,0-1.07-.01-1.58,0-.26-.13-.36-.36-.4-.75-.14-1.49-.33-2.25-.44-1.06-.14-2.12-.22-3.2-.33.03.57.05,1.06.08,1.62Z"/>
      <path d="m18.82,10.32c1.04.18,2.08.35,3.11.54.31.06.6.21.51.58-.09.39-.39.41-.73.31-1.14-.32-2.3-.45-3.49-.4-.32.01-.61-.05-.62-.45-.02-.4.27-.48.59-.49.21,0,.41,0,.62,0,0-.04.01-.07.02-.11Z"/>
      <path d="m24.36,12.77c-.45.02-.96-.35-.88-.59.06-.18.25-.39.43-.45.27-.08.75.31.71.56-.03.19-.19.36-.26.48Z"/>
    </g>
  </g>
</svg>