<?xml version="1.0" encoding="UTF-8"?>
<svg id="Calque_2" data-name="Calque 2" xmlns="http://www.w3.org/2000/svg" viewBox="0 0 190.18 175.44">
  <defs>
    <style>
      .cls-1 {
        stroke-width: .08px;
      }

      .cls-1, .cls-2, .cls-3, .cls-4, .cls-5, .cls-6 {
        fill: none;
        stroke-miterlimit: 10;
      }

      .cls-1, .cls-3, .cls-5 {
        stroke: #000;
      }

      .cls-2 {
        stroke: #a0886a;
        stroke-width: .44px;
      }

      .cls-7 {
        fill: #f4e7d7;
      }

      .cls-8 {
        fill: #d6453f;
      }

      .cls-3 {
        stroke-width: .11px;
      }

      .cls-4 {
        stroke-width: .57px;
      }

      .cls-4, .cls-6 {
        stroke: #877866;
      }

      .cls-5 {
        stroke-width: .29px;
      }

      .cls-9, .cls-10 {
        opacity: .42;
      }

      .cls-6 {
        stroke-width: .62px;
      }

      .cls-10 {
        fill: #bfae99;
      }
    </style>
  </defs>
  <g id="Calque_1-2" data-name="Calque 1">
    <polygon class="cls-7" points="189.96 175.22 .22 175.22 .22 16.49 .22 .22 189.96 .22 189.96 175.22"/>
    <path class="cls-10" d="m.22,33.36c4.42-.66,13.63,1.26,17.88,2.54,0,0,0,9.81,0,9.81,4.95-.17,5.51-.64,5.08,4.72,0,0,14.89,1.82,14.89,1.82l1.82-6.54c2.62,5.66,2.64,7.33,9.45,6.54,6.99,15.92,12.04,5.52,11.26,15.26,0,0,11.99,4.36,11.99,4.36v4.72c5.68,2.96,26.55,9.01,8.35,13.44,3.61,4.15,14.66,11.36,12.18,18.16-9.06-1.78-8.83,6.05-12.91,11.62-.92,5.62-4.41,9.47,2.18,13.08-1.77,2.61-2.47,7.55-1.45,10.53,0,0,4.36-2.54,4.36-2.54,5.29,2.65,2.3,5.89-.73,9.08,7.12,3.11,11.43-1.19,10.51,4.72,17.27-.85,1.17,2.39,17.09,5.81,10.62-1.37,9.32,5.95,21.07,4,10.65.69,20.96,10.25,28.7-1.82,10.07-13.29-18.97-19.74,1.84-24.34-.2-5.62.48-4.75-4.74-7.63-6.16-11.3,10.29-4.47-3.27-13.8-3.19-5.42,1.46-5.23,4.72-6.17,0,0,5.09-9.73,5.09-9.73-2.3.75-7.55-3.51-7.63-6.62,2.65-.83,6.18-4.39,7.63-6.67,0,0-3.63-6.04-3.63-6.04,1.86-3,5.56-5,9.08-5.08-3.12-7.18,1.34-5.25,7.99-5.81,4.68-1.34,8.19.52,10.94.36,0,0,0,104.08,0,104.08H.22V33.36Z"/>
    <g class="cls-9">
      <polygon class="cls-1" points="173.45 5.22 171.6 10.13 173.45 15.03 175.3 10.13 173.45 5.22"/>
      <polygon points="173.45 5.22 173.45 10.13 173.45 15.03 175.3 10.13 173.45 5.22"/>
      <polygon class="cls-1" points="173.45 15.03 175.3 19.94 173.45 24.84 171.6 19.94 173.45 15.03"/>
      <polygon points="173.45 15.03 173.45 19.94 173.45 24.84 171.6 19.94 173.45 15.03"/>
      <polygon class="cls-1" points="163.64 15.03 168.55 16.88 173.45 15.03 168.55 13.18 163.64 15.03"/>
      <polygon points="163.64 15.03 168.55 15.03 173.45 15.03 168.55 13.18 163.64 15.03"/>
      <polygon class="cls-1" points="173.45 15.03 178.36 13.18 183.26 15.03 178.36 16.88 173.45 15.03"/>
      <polygon points="173.45 15.03 178.36 15.03 183.26 15.03 178.36 16.88 173.45 15.03"/>
      <polygon class="cls-3" points="163.64 5.22 168.55 13.18 173.45 15.03 171.6 10.13 163.64 5.22"/>
      <polygon points="163.64 5.22 168.55 10.13 173.45 15.03 171.6 10.13 163.64 5.22"/>
      <polygon class="cls-3" points="173.45 15.03 178.36 16.88 183.26 24.84 175.3 19.94 173.45 15.03"/>
      <polygon points="173.45 15.03 178.36 19.94 183.26 24.84 175.3 19.94 173.45 15.03"/>
      <polygon class="cls-3" points="183.26 5.22 175.3 10.13 173.45 15.03 178.36 13.18 183.26 5.22"/>
      <polygon points="183.26 5.22 178.36 10.13 173.45 15.03 178.36 13.18 183.26 5.22"/>
      <polygon class="cls-3" points="173.45 15.03 171.6 19.94 163.65 24.84 168.55 16.88 173.45 15.03"/>
      <polygon points="173.45 15.03 168.55 19.94 163.65 24.84 168.55 16.88 173.45 15.03"/>
      <circle class="cls-5" cx="173.45" cy="15.03" r="9.81"/>
    </g>
    <g class="cls-9">
      <g>
        <path class="cls-8" d="m30.77,101.55v.12s.03-.08,0-.12Z"/>
        <path class="cls-8" d="m45.18,112s.02,0,.03-.01c-.01,0-.02,0-.03.01Z"/>
        <path class="cls-8" d="m30.76,105.96h0s-.02,0-.03,0h.03Z"/>
        <path class="cls-8" d="m28.11,103.45c.66.7.56,1.23,1.45,1.7.34.33.81.56,1.2.8.4-.15.48.38.87.3l-.05.23c.14-.03.26-.02.26.13l-.04.04c.2-.04.26.13.37.11l-.04.04.14.08-.08.05c.29.01.48.15.6.35l.14-.21c.18.5.64.19.76.71l-.04.05c.82-.21.37.87,1.19.68-.1.02-.06.12-.1.17.24.09.47.22.78-.18.14.11.02.21-.07.38.13-.18.31-.15.43-.08l-.1.03.37.18.18-.38c.1.22-.26.44-.03.48l.2-.28c.2.23.03.75.11,1.12.88.82,2.43.84,3,1.96l-.1.24c-.19.32.56-.29.41.02l.2-.07c0,.08.02.18-.08.21.09.08.13.03.26-.02l-.02.27c.29.42.88.25,1.24.6.24.73,1.43.95,2.1,1.07,1.06-.01,1.18,1.82,2.31,1.73,0,.06.13,0,.15-.04l.7.48s.87.54,1.59.55c.73.01,1.29-.52.74-2.63l.06-.06c-.29-.4-.52-.58-1-.38.21-.46-.29-.23-.3-.43l.03-.03c-.44.19-.33-.57-.73-.4.03-.03.11-.15.16-.12-.2-.04-.49-.08-.35-.34-.44-.17-.91-.62-1.41-.38l.06-.06c-.31.18-.21-.07-.46-.04.01-.04.01-.06.02-.07-.32.17-.48-.24-.68-.21l.1-.17-.33-.16.09.11c-.33.43-.06-.43-.47-.28-.17-.19-1.03.67-1.1.3-.24.14.31-.28.05-.22.15-.24.17-.1.25-.31-.22.01-.09-.4-.38-.36l.11-.19c-.46.17-.3-.54-.67-.33-.35-.02.19-.65-.3-.47l.06-.31c-.08-.11-.28.25-.32.05.11-.15-.07-.23.1-.32-.11-.42-.79-.04-.88-.69-.28.24-.34-.06-.56.12.08-.14-.35-.27.05-.41.03-.01.06.01.02.06l.15-.16c.03-.47-.5-.08-.67-.27.02.1.11.14-.03.22l-.17-.16.14-.12-.22-.28-.09.21c-.07-.19.1-.53-.24-.39-.17.09-.05.34-.23.29-.1-.25-.23-.64-.42-.86-.13.22-.18.17-.28.16l.12-.18c-.42.06.19-.45-.19-.44l.11-.11-.34.32c-.48.18.15-.45-.44-.16.12.04-.24.42-.3.25l.16-.15c-.09-.01-.17.04-.18-.03.11-.06.2-.23.09-.27l.22-.16-.41.17c0-.29-.4-.23-.27-.51,0,0-.21-.34-.48-.14.18-.11.06-.3.26-.45-.22.12-.56.09-.5-.17h.03c-.19-.47-.79-.19-.91-.66-.14.21-.22-.02-.38.26-.51,0-.16-.97-.9-.27-.18-.07-.02-.32-.07-.42h.07c-.32-.16-.4-.22-.58-.39-.16,0-.47.35-.57.12.17-.1.08-.13.01-.18.06.01.12-.03.11-.2-.05.03-.09.05-.12.06,0-.01.01-.02.03-.04-.15-.04-.17.02-.13.08-.02.02-.04.05-.05.1.03-.28-.33-.24-.15-.5-.38-.21-.82-.15-1.17-.28.07-.15.23-.21.35-.2l-.23-.11c.15-.18.2-.01.29,0,0-.48-.72-.1-.77-.59l-.17.1v-.04c-.06.08-.2.13-.26.12.09-.19.3-.36.16-.46.02-.24-.37-.17-.58-.2.05.09-.04.16-.12.19-.07-.05.02-.24-.09-.21l.17-.22c-.14.22-.35.07-.45.14.09-.19.22-.05.33-.16-.29-.2-.14-.1-.43-.3-.28.04-.14.22-.36.35-.16-.06-.41-.02-.45-.26l-.11.23c-.36-.05-.49-.19-.49-.51-3.05.08-2.1,1.8-2.1,1.8.36.99,1.18.74,2.14,1.28Z"/>
      </g>
    </g>
    <g class="cls-9">
      <g>
        <path class="cls-8" d="m46.11,104.56l-.09-.07s.05.07.09.07Z"/>
        <path class="cls-8" d="m34.69,113.41s0,.02,0,.03c0-.01,0-.02,0-.03Z"/>
        <path class="cls-8" d="m42.51,102.51h0s0-.02,0-.03v.03Z"/>
        <path class="cls-8" d="m45.65,101.37c-.86.16-1.26-.15-2.02.41-.42.13-.77.49-1.12.74.01.42-.49.27-.52.67l-.19-.13c-.01.13-.05.25-.18.2l-.03-.05c-.01.2-.18.2-.19.3l-.03-.05-.11.1-.03-.09c-.08.26-.26.38-.45.43l.16.2c-.49.01-.29.52-.78.47l-.03-.05c.05.79-.85.09-.8.88,0-.1-.1-.08-.14-.13-.12.19-.27.37.06.75-.12.09-.2-.04-.34-.17.14.16.11.32.03.41l-.02-.1-.2.28.32.26c-.21.03-.37-.35-.43-.16l.23.25c-.23.11-.68-.17-1.03-.2-.82.56-.98,1.92-2.04,2.07l-.2-.16c-.27-.27.2.57-.06.34l.04.2c-.07-.03-.16-.04-.18-.14-.08.05-.04.1-.01.23l-.23-.11c-.39.12-.33.65-.69.83-.65-.05-1.04.8-1.28,1.32-.25.87-1.74.12-1.99,1-.05-.03-.03.1-.01.14l-.58.29s-.7.33-.97.88c-.26.54-.18,1.33,1.71,2.09l.02.08c.44-.01.7-.09.73-.59.29.41.31-.13.47-.04v.04c.02-.46.61,0,.63-.41.01.04.08.16.04.19.11-.14.25-.36.42-.12.29-.3.85-.52.78-1.05l.03.08c-.07-.34.13-.15.17-.37.03.03.05.03.06.05-.06-.35.34-.33.36-.51l.13.15.22-.23-.12.04c-.3-.45.4.11.36-.3.22-.08-.38-1.13-.04-1.07-.08-.26.19.37.19.12.18.21.06.18.23.33.03-.2.38.05.4-.22l.15.16c-.07-.46.55-.09.42-.49.07-.31.56.37.47-.13l.27.15c.12-.04-.18-.32,0-.3.12.14.22,0,.28.18.41.02.15-.7.76-.59-.19-.32.1-.29-.04-.53.11.11.29-.24.37.16,0,.03-.02.05-.06,0l.13.17c.43.15.13-.43.32-.52-.09-.01-.14.06-.2-.09l.16-.11.09.16.28-.12-.18-.14c.18-.01.47.23.37-.11-.07-.18-.3-.13-.24-.28.24-.02.6-.04.82-.14-.19-.17-.13-.21-.12-.29l.15.16c-.02-.39.39.3.41-.04l.09.13-.26-.38c-.12-.47.39.26.18-.35-.05.09-.35-.33-.2-.34l.12.18c.02-.08-.02-.16.04-.15.04.11.19.24.23.16l.12.24-.12-.41c.25.08.24-.27.47-.08,0,0,.32-.08.17-.37.08.19.26.15.37.36-.09-.23-.02-.51.2-.37v.03c.41,0,.24-.61.66-.54-.16-.2.05-.18-.17-.42.08-.43.83.24.37-.65.09-.12.27.1.35.11v.06c.17-.21.23-.27.41-.34.03-.13-.19-.54.02-.53.04.19.09.12.15.09-.02.05,0,.11.14.18-.02-.06-.02-.1-.02-.13,0,.01.02.02.02.04.06-.11.02-.15-.04-.15-.01-.03-.03-.06-.07-.09.21.15.27-.17.43.1.24-.23.32-.61.52-.84.1.13.1.29.05.38l.15-.13c.1.21-.04.17-.08.24.36.25.28-.54.66-.34l-.02-.19.03.02c-.04-.09-.03-.24,0-.29.11.18.17.44.3.38.17.15.25-.19.34-.34-.08,0-.1-.12-.09-.2.06-.03.17.15.19.05l.1.26c-.11-.24.07-.32.06-.44.1.18-.04.2,0,.35.25-.12.12-.06.37-.17.07-.25-.11-.24-.11-.49.1-.1.17-.32.37-.2l-.12-.22c.19-.25.35-.26.57-.06.65-1.21.65-1.9.41-2.29-.24-.38-.69-.46-.69-.46-.95-.31-1.19.47-2.04,1Z"/>
      </g>
    </g>
    <g class="cls-9">
      <rect class="cls-2" x=".22" y=".22" width="189.74" height="175"/>
      <line class="cls-2" x1=".22" y1="159.31" x2="189.96" y2="159.31"/>
      <line class="cls-2" x1=".22" y1="143.4" x2="189.96" y2="143.4"/>
      <line class="cls-2" x1=".22" y1="127.49" x2="189.96" y2="127.49"/>
      <line class="cls-2" x1=".22" y1="111.58" x2="189.96" y2="111.58"/>
      <line class="cls-2" x1=".22" y1="95.67" x2="189.96" y2="95.67"/>
      <line class="cls-2" x1=".22" y1="79.76" x2="189.96" y2="79.76"/>
      <line class="cls-2" x1=".22" y1="63.85" x2="189.96" y2="63.85"/>
      <line class="cls-2" x1=".22" y1="47.95" x2="189.96" y2="47.95"/>
      <line class="cls-2" x1="189.96" y1="32.04" x2=".22" y2="32.04"/>
      <line class="cls-2" x1=".22" y1="16.13" x2="189.96" y2="16.13"/>
      <line class="cls-2" x1="172.71" y1=".22" x2="172.71" y2="175.22"/>
      <line class="cls-2" x1="155.46" y1=".22" x2="155.46" y2="175.22"/>
      <line class="cls-2" x1="138.21" y1=".22" x2="138.21" y2="175.22"/>
      <line class="cls-2" x1="120.96" y1=".22" x2="120.96" y2="175.22"/>
      <line class="cls-2" x1="103.71" y1=".22" x2="103.71" y2="175.22"/>
      <line class="cls-2" x1="86.47" y1=".22" x2="86.47" y2="175.22"/>
      <line class="cls-2" x1="69.22" y1=".22" x2="69.22" y2="175.22"/>
      <line class="cls-2" x1="51.97" y1=".22" x2="51.97" y2="175.22"/>
      <line class="cls-2" x1="34.72" y1=".22" x2="34.72" y2="175.22"/>
      <line class="cls-2" x1="17.47" y1=".22" x2="17.47" y2="175.22"/>
    </g>
    <g class="cls-9">
      <path class="cls-6" d="m89.02,65.9c1.63.25,4.21-1.65,4.03-1.74-.36-.16.11,2.22,1.95,3.03,2.44,1.08,5.16.12,4.68-.1-.6-.27-.79,3.17,2.45,4.6"/>
      <path class="cls-4" d="m87.72,68.84c1.43.16,3.82-1.83,3.66-1.9-.31-.14,0,2.16,1.58,2.87,2.11.93,4.57-.15,4.15-.33-.52-.23-.86,3.14,1.94,4.38"/>
    </g>
    <g class="cls-9">
      <path class="cls-6" d="m19.74,21.03c1.59-.43,3.18-3.22,2.98-3.22-.4,0,1,1.98,3.01,1.98,2.67,0,4.76-1.98,4.24-1.98-.66,0,.56,3.22,4.1,3.22"/>
      <path class="cls-4" d="m19.74,24.25c1.37-.43,2.75-3.22,2.58-3.22-.34,0,.87,1.98,2.61,1.98,2.31,0,4.12-1.98,3.67-1.98-.57,0,.49,3.22,3.55,3.22"/>
    </g>
    <g class="cls-9">
      <path class="cls-6" d="m120.7,27.88c1.59-.43,3.18-3.22,2.98-3.22-.4,0,1,1.98,3.01,1.98,2.67,0,4.76-1.98,4.24-1.98-.66,0,.56,3.22,4.1,3.22"/>
      <path class="cls-4" d="m120.7,31.1c1.37-.43,2.75-3.22,2.58-3.22-.34,0,.87,1.98,2.61,1.98,2.31,0,4.12-1.98,3.67-1.98-.57,0,.49,3.22,3.55,3.22"/>
    </g>
    <g class="cls-9">
      <path class="cls-6" d="m53.57,26c1.64-.06,3.82-2.42,3.63-2.46-.39-.09.53,2.16,2.49,2.61,2.6.6,5.09-.86,4.58-.97-.64-.15-.18,3.26,3.27,4.06"/>
      <path class="cls-4" d="m52.85,29.14c1.43-.11,3.4-2.51,3.24-2.55-.33-.08.4,2.13,2.09,2.52,2.25.52,4.46-1,4.02-1.1-.56-.13-.25,3.25,2.73,3.94"/>
    </g>
    <g class="cls-9">
      <path class="cls-6" d="m108.67,109.46c1.64.06,3.99-2.13,3.8-2.19-.38-.12.37,2.19,2.29,2.79,2.55.79,5.14-.48,4.64-.64-.63-.2-.42,3.24,2.96,4.29"/>
      <path class="cls-4" d="m107.72,112.53c1.44,0,3.58-2.26,3.41-2.31-.33-.1.24,2.15,1.9,2.66,2.21.68,4.52-.67,4.09-.81-.55-.17-.49,3.22,2.43,4.12"/>
    </g>
    <g class="cls-9">
      <path class="cls-6" d="m129.29,143.24c1.59-.43,3.18-3.22,2.98-3.22-.4,0,1,1.98,3.01,1.98,2.67,0,4.76-1.98,4.24-1.98-.66,0,.56,3.22,4.1,3.22"/>
      <path class="cls-4" d="m129.29,146.46c1.37-.43,2.75-3.22,2.58-3.22-.34,0,.87,1.98,2.61,1.98,2.31,0,4.12-1.98,3.67-1.98-.57,0,.49,3.22,3.55,3.22"/>
    </g>
    <g class="cls-9">
      <path class="cls-6" d="m134.56,105.12c1.53-.62,2.78-3.57,2.58-3.54-.39.05,1.23,1.85,3.23,1.62,2.65-.31,4.5-2.53,3.98-2.46-.66.08.94,3.13,4.45,2.72"/>
      <path class="cls-4" d="m134.94,108.32c1.31-.59,2.36-3.52,2.18-3.5-.34.04,1.09,1.87,2.82,1.66,2.29-.27,3.86-2.45,3.41-2.4-.57.07.86,3.14,3.9,2.78"/>
    </g>
    <g class="cls-9">
      <path class="cls-6" d="m118.28,77.87c1.59-.43,3.18-3.22,2.98-3.22-.4,0,1,1.98,3.01,1.98,2.67,0,4.76-1.98,4.24-1.98-.66,0,.56,3.22,4.1,3.22"/>
      <path class="cls-4" d="m118.28,81.09c1.37-.43,2.75-3.22,2.58-3.22-.34,0,.87,1.98,2.61,1.98,2.31,0,4.12-1.98,3.67-1.98-.57,0,.49,3.22,3.55,3.22"/>
    </g>
    <g class="cls-9">
      <path class="cls-6" d="m129.78,53.39c1.59-.43,3.18-3.22,2.98-3.22-.4,0,1,1.98,3.01,1.98,2.67,0,4.76-1.98,4.24-1.98-.66,0,.56,3.22,4.1,3.22"/>
      <path class="cls-4" d="m129.78,56.61c1.37-.43,2.75-3.22,2.58-3.22-.34,0,.87,1.98,2.61,1.98,2.31,0,4.12-1.98,3.67-1.98-.57,0,.49,3.22,3.55,3.22"/>
    </g>
    <g class="cls-9">
      <path class="cls-6" d="m89.38,35.25c1.59-.43,3.18-3.22,2.98-3.22-.4,0,1,1.98,3.01,1.98,2.67,0,4.76-1.98,4.24-1.98-.66,0,.56,3.22,4.1,3.22"/>
      <path class="cls-4" d="m89.38,38.47c1.37-.43,2.75-3.22,2.58-3.22-.34,0,.87,1.98,2.61,1.98,2.31,0,4.12-1.98,3.67-1.98-.57,0,.49,3.22,3.55,3.22"/>
    </g>
  </g>
</svg>