<?xml version="1.0" encoding="UTF-8"?>
<svg id="Calque_2" data-name="Calque 2" xmlns="http://www.w3.org/2000/svg" viewBox="0 0 24.21 25">
  <defs>
    <style>
      .cls-1 {
        fill: none;
        stroke: #000;
        stroke-miterlimit: 10;
        stroke-width: 2px;
      }
    </style>
  </defs>
  <g id="Calque_1-2" data-name="Calque 1">
    <path class="cls-1" d="m17.51,15.2c-1.31.94-3.11,1.99-4.13,1.87-.53-.07-2.42-1.1-3.8-2.58-1.19-1.28-1.93-3-1.96-3.51-.07-1.02,1.08-2.77,2.08-4.03.71-.89-3.04-5.96-4.73-5.96-1.06,0-3.42.98-3.74,1.99-.76,2.45.35,10.02,4.67,14.68,4.58,4.94,12.48,6.88,15.14,6.21,1.03-.26,2.12-2.57,2.18-3.63.09-1.69-4.78-5.7-5.7-5.04Z"/>
  </g>
</svg>